<?xml version="1.0" encoding="utf-8"?>
<!-- Generator: Adobe Illustrator 26.4.1, SVG Export Plug-In . SVG Version: 6.00 Build 0)  -->
<svg version="1.1" id="Layer_1" xmlns="http://www.w3.org/2000/svg" xmlns:xlink="http://www.w3.org/1999/xlink" x="0px" y="0px"
	 viewBox="0 0 100.2 100.2" style="enable-background:new 0 0 100.2 100.2;" xml:space="preserve">
<style type="text/css">
	.st0{fill:#FFFFFF;}
</style>
<path class="st0" d="M79,36.5h-5.5V36C73.5,23,63,12.5,50,12.5S26.5,23,26.5,36v0.5H21c-0.8,0-1.5,0.7-1.5,1.5v48
	c0,0.8,0.7,1.5,1.5,1.5h58c0.8,0,1.5-0.7,1.5-1.5V38C80.5,37.2,79.8,36.5,79,36.5z M29.5,36c0-11.3,9.2-20.5,20.5-20.5
	S70.5,24.7,70.5,36v0.5h-41V36z M77.5,84.5h-55v-45h55V84.5z"/>
</svg>
