<?xml version="1.0" encoding="utf-8"?>
<!-- Generator: Adobe Illustrator 26.4.1, SVG Export Plug-In . SVG Version: 6.00 Build 0)  -->
<svg version="1.1" id="Слой_2_00000011030334108452546840000010188353134187186314_"
	 xmlns="http://www.w3.org/2000/svg" xmlns:xlink="http://www.w3.org/1999/xlink" x="0px" y="0px" viewBox="0 0 100 100"
	 style="enable-background:new 0 0 100 100;" xml:space="preserve">
<style type="text/css">
	.st0{fill:#FFFFFF;}
</style>
<path class="st0" d="M42.5,79H15V36h65v5.5c0,0.8,0.7,1.5,1.5,1.5s1.5-0.7,1.5-1.5v-21c0-0.8-0.7-1.5-1.5-1.5h-68
	c-0.8,0-1.5,0.7-1.5,1.5v60c0,0.8,0.7,1.5,1.5,1.5h29c0.8,0,1.5-0.7,1.5-1.5S43.3,79,42.5,79z M80,22v11H15V22H80z"/>
<path class="st0" d="M20.5,29h5c0.8,0,1.5-0.7,1.5-1.5S26.3,26,25.5,26h-5c-0.8,0-1.5,0.7-1.5,1.5S19.7,29,20.5,29z"/>
<path class="st0" d="M31.5,29h5c0.8,0,1.5-0.7,1.5-1.5S37.3,26,36.5,26h-5c-0.8,0-1.5,0.7-1.5,1.5S30.7,29,31.5,29z"/>
<path class="st0" d="M67,57c-5.5,0-10,4.5-10,10s4.5,10,10,10s10-4.5,10-10S72.5,57,67,57z M67,74c-3.9,0-7-3.1-7-7s3.1-7,7-7
	s7,3.1,7,7S70.9,74,67,74z"/>
<path class="st0" d="M89.7,61.7L84,60.8c-0.3-0.9-0.7-1.8-1.1-2.6l3.4-4.7c0.5-0.6,0.4-1.5-0.2-2l-4.8-4.8c-0.5-0.6-1.4-0.6-2-0.2
	L74.8,50c-0.8-0.4-1.7-0.7-2.6-1l-0.9-5.7c-0.1-0.7-0.7-1.3-1.5-1.3h-6.7c-0.7,0-1.4,0.5-1.5,1.3L60.8,49c-0.9,0.3-1.8,0.7-2.6,1.1
	l-4.7-3.4c-0.6-0.5-1.5-0.4-2,0.2l-4.8,4.8c-0.6,0.5-0.6,1.4-0.2,2l3.4,4.7c-0.4,0.8-0.8,1.7-1,2.5l-5.7,0.9
	c-0.7,0.1-1.3,0.7-1.3,1.5v6.7c0,0.7,0.5,1.4,1.3,1.5l5.8,0.9c0.3,0.9,0.6,1.7,1.1,2.6l-3.5,4.7c-0.5,0.6-0.4,1.5,0.2,2l4.8,4.8
	c0.5,0.6,1.4,0.6,2,0.2l4.7-3.5c0.8,0.4,1.7,0.8,2.5,1.1l0.9,5.8c0.1,0.7,0.7,1.2,1.4,1.2h6.7c0.7,0,1.4-0.5,1.5-1.3l0.9-5.8
	c0.9-0.3,1.7-0.6,2.5-1.1l4.7,3.5c0.6,0.5,1.5,0.4,2-0.2l4.8-4.8c0.6-0.5,0.6-1.4,0.2-2l-3.5-4.7c0.4-0.8,0.8-1.7,1.1-2.5l5.8-0.9
	c0.7-0.1,1.2-0.8,1.2-1.5v-6.7C91,62.4,90.5,61.8,89.7,61.7z M88,68.6l-5.4,0.8c-0.6,0.1-1.1,0.5-1.2,1.1c-0.3,1.3-0.9,2.5-1.5,3.7
	c-0.3,0.5-0.3,1.2,0.1,1.6l3.3,4.4l-2.9,2.9l-4.4-3.3c-0.5-0.4-1.1-0.4-1.6-0.1c-1.1,0.7-2.4,1.2-3.7,1.5c-0.6,0.2-1,0.6-1.1,1.2
	L68.6,88h-4.2l-0.8-5.5c-0.1-0.6-0.5-1.1-1.1-1.2c-1.3-0.3-2.5-0.9-3.7-1.5c-0.5-0.3-1.2-0.3-1.6,0.1l-4.5,3.3l-2.9-2.9l3.3-4.4
	c0.4-0.5,0.4-1.1,0.1-1.6c-0.7-1.2-1.2-2.4-1.5-3.7c-0.2-0.6-0.6-1-1.2-1.1L45,68.6v-4.2l5.4-0.8c0.6-0.1,1.1-0.5,1.2-1.1
	c0.3-1.3,0.9-2.5,1.5-3.7c0.3-0.5,0.3-1.2-0.1-1.6l-3.2-4.4l2.9-2.9l4.4,3.2c0.5,0.4,1.1,0.4,1.6,0.1c1.2-0.7,2.4-1.2,3.7-1.5
	c0.6-0.2,1-0.6,1.1-1.2l0.8-5.4h4.2l0.8,5.4c0.1,0.6,0.5,1.1,1.1,1.2c1.3,0.3,2.6,0.9,3.7,1.5c0.5,0.3,1.2,0.3,1.6-0.1l4.4-3.2
	l2.9,2.9l-3.2,4.4c-0.4,0.5-0.4,1.1-0.1,1.6c0.7,1.2,1.2,2.4,1.5,3.7c0.2,0.6,0.6,1,1.2,1.1l5.4,0.8L88,68.6z"/>
</svg>
