<?xml version="1.0" encoding="utf-8"?>
<!-- Generator: Adobe Illustrator 26.4.1, SVG Export Plug-In . SVG Version: 6.00 Build 0)  -->
<svg version="1.1" id="Layer_1" xmlns="http://www.w3.org/2000/svg" xmlns:xlink="http://www.w3.org/1999/xlink" x="0px" y="0px"
	 viewBox="0 0 100.2 100.2" style="enable-background:new 0 0 100.2 100.2;" xml:space="preserve">
<style type="text/css">
	.st0{fill:#FFFFFF;}
</style>
<path class="st0" d="M76,37c-2.4,0-4.7,0.5-6.9,1.4c-1.2-11.7-11.3-20.9-23.5-20.9c-13,0-23.6,10.4-23.6,23.2c0,1.4,0.1,2.7,0.4,4.1
	c-0.7-0.1-1.5-0.2-2.2-0.2c-7.5,0-13.7,6-13.7,13.4s6.1,13.4,13.7,13.4h56.4c0.1,0,0.2,0,0.3,0c9.4-0.5,16.6-8,16.6-17.2
	C93.5,44.8,85.6,37,76,37z M76.5,68.5c-0.1,0-0.2,0-0.2,0H20.2c-5.9,0-10.7-4.7-10.7-10.4c0-5.8,4.8-10.4,10.7-10.4
	c1.3,0,2.5,0.2,3.7,0.7c0.5,0.2,1.1,0.1,1.5-0.3c0.4-0.4,0.6-1,0.4-1.5c-0.6-1.9-0.9-3.8-0.9-5.8c0-11.1,9.2-20.2,20.6-20.2
	s20.6,9.1,20.6,20.2c0,0,0,0.1,0,0.2c0,0.5,0.3,1,0.8,1.3c0.5,0.3,1,0.3,1.5,0c2.3-1.4,4.9-2.1,7.5-2.1c8,0,14.5,6.4,14.5,14.2
	C90.5,62,84.3,68.2,76.5,68.5z"/>
</svg>
