<?xml version="1.0" encoding="utf-8"?>
<!-- Generator: Adobe Illustrator 26.4.1, SVG Export Plug-In . SVG Version: 6.00 Build 0)  -->
<svg version="1.1" id="Слой_1" xmlns="http://www.w3.org/2000/svg" xmlns:xlink="http://www.w3.org/1999/xlink" x="0px" y="0px"
	 viewBox="0 0 100 100" style="enable-background:new 0 0 100 100;" xml:space="preserve">
<style type="text/css">
	.st0{fill:#808080;}
</style>
<path class="st0" d="M88.5,36V24c0-3-2.5-5.5-5.5-5.5H18c-3,0-5.5,2.5-5.5,5.5v12c0,1.5,0.6,3,1.7,4c-1.1,1-1.7,2.5-1.7,4v12
	c0,1.5,0.6,3,1.7,4c-1.1,1-1.7,2.5-1.7,4v12c0,3,2.5,5.5,5.5,5.5h65c3,0,5.5-2.5,5.5-5.5V64c0-1.5-0.6-3-1.7-4c1.1-1,1.7-2.5,1.7-4
	V44c0-1.5-0.6-3-1.7-4C87.9,39,88.5,37.5,88.5,36z M85.5,64v12c0,1.4-1.1,2.5-2.5,2.5H18c-1.4,0-2.5-1.1-2.5-2.5V64
	c0-1.4,1.1-2.5,2.5-2.5h65C84.4,61.5,85.5,62.6,85.5,64z M85.5,44v12c0,1.4-1.1,2.5-2.5,2.5H18c-1.4,0-2.5-1.1-2.5-2.5V44
	c0-1.4,1.1-2.5,2.5-2.5h65C84.4,41.5,85.5,42.6,85.5,44z M18,38.5c-1.4,0-2.5-1.1-2.5-2.5V24c0-1.4,1.1-2.5,2.5-2.5h65
	c1.4,0,2.5,1.1,2.5,2.5v12c0,1.4-1.1,2.5-2.5,2.5H18z"/>
<circle class="st0" cx="25" cy="30" r="3"/>
<circle class="st0" cx="25" cy="50" r="3"/>
<circle class="st0" cx="25" cy="70" r="3"/>
<path class="st0" d="M79,28.5H59c-0.8,0-1.5,0.7-1.5,1.5s0.7,1.5,1.5,1.5h20c0.8,0,1.5-0.7,1.5-1.5S79.8,28.5,79,28.5z"/>
<path class="st0" d="M59,51.5h20c0.8,0,1.5-0.7,1.5-1.5s-0.7-1.5-1.5-1.5H59c-0.8,0-1.5,0.7-1.5,1.5S58.2,51.5,59,51.5z"/>
<path class="st0" d="M59,71.5h20c0.8,0,1.5-0.7,1.5-1.5s-0.7-1.5-1.5-1.5H59c-0.8,0-1.5,0.7-1.5,1.5S58.2,71.5,59,71.5z"/>
</svg>
